<svg width="60" height="69" viewBox="0 0 60 69" fill="none" xmlns="http://www.w3.org/2000/svg">
<path d="M40.4433 8.05406C40.4433 3.61227 36.8311 0 32.3893 0C27.9475 0 24.3352 3.61227 24.3352 8.05406C24.3352 12.4959 27.9475 16.1081 32.3893 16.1081C36.8311 16.1081 40.4433 12.4959 40.4433 8.05406Z" fill="white"/>
<path d="M22.3217 32.2163H42.4568C43.5695 32.2163 44.4703 31.3154 44.4703 30.2028V28.1892C44.4703 21.5273 39.0512 16.1082 32.3893 16.1082C25.7274 16.1082 20.3082 21.5273 20.3082 28.1892V30.2028C20.3082 31.3154 21.2085 32.2163 22.3217 32.2163Z" fill="white"/>
<path d="M59.7096 33.1873C59.3457 32.5859 58.6929 32.2162 57.9871 32.2162C54.4373 32.2162 51.181 34.1862 49.5335 37.3297L43.3577 49.115C42.3111 51.1107 40.2624 52.3513 38.0072 52.3513H24.3352C23.222 52.3513 22.3217 51.4505 22.3217 50.3378C22.3217 49.2251 23.222 48.3243 24.3352 48.3243H38.0072C38.7581 48.3243 39.4423 47.9116 39.7905 47.2468L43.4468 40.2702H19.6181C16.9282 40.2702 14.3993 41.3184 12.4979 43.2197L0.589897 55.1278C-0.196632 55.9143 -0.196632 57.1885 0.589897 57.975L10.6575 68.138C11.0507 68.5313 11.5662 68.7279 12.0811 68.7279C12.596 68.7279 13.1114 68.5313 13.5047 68.138L21.1419 60.4054H38.0072C43.2691 60.4054 48.0533 57.511 50.4915 52.8526L59.7683 35.1657C60.0966 34.5422 60.0751 33.7913 59.7096 33.1873Z" fill="white"/>
</svg>
