<svg width="60" height="61" viewBox="0 0 60 61" fill="none" xmlns="http://www.w3.org/2000/svg">
<path fill-rule="evenodd" clip-rule="evenodd" d="M12.4176 12.8257L11.3075 11.7156C10.5725 10.9806 9.58242 10.5605 8.53237 10.5605C7.48231 10.5605 6.50726 10.9806 5.77223 11.7156C4.69217 12.7957 3.2821 14.2057 2.17204 15.3308C1.03198 16.4708 0.131938 18.616 0.0119316 21.5561C-0.21308 27.5264 2.69707 37.1269 12.7776 47.2224C22.8581 57.3329 32.4286 60.2581 38.3839 60.0181C41.309 59.8981 43.4542 58.998 44.5942 57.858C45.7043 56.7479 47.1143 55.3378 48.1944 54.2428C48.9294 53.5077 49.3345 52.5177 49.3345 51.4676C49.3345 50.4176 48.9144 49.4275 48.1944 48.6925L47.2343 47.7324C54.8547 43.3072 60 35.0418 60 25.5763C60 11.4606 48.5694 0 34.4987 0C25.0632 0 16.8128 5.14526 12.4026 12.7957L12.4176 12.8257ZM45.0442 45.5423C52.1546 41.7471 57.0148 34.2318 57.0148 25.6063C57.0148 13.1557 46.9343 3.03015 34.5137 3.03015C25.9033 3.03015 18.4029 7.8904 14.6227 15.0308L17.4428 17.8659C18.1779 18.601 18.5829 19.591 18.5829 20.6411C18.5829 21.6911 18.1629 22.6812 17.4428 23.4162L15.1027 25.7713C14.5927 27.0014 12.2226 33.9167 19.1529 40.8621C26.0683 47.8074 32.9686 45.4223 34.1987 44.9123L36.5388 42.5722C37.2738 41.8371 38.2639 41.4171 39.3139 41.4171C40.364 41.4171 41.339 41.8221 42.0741 42.5722L45.0442 45.5573V45.5423ZM46.5143 33.0167C46.5143 31.3666 45.1642 30.0165 43.5142 30.0165H25.5132C23.8631 30.0165 22.5131 31.3666 22.5131 33.0167V34.5168C22.5131 36.1668 23.8631 37.5169 25.5132 37.5169H43.5142C45.1642 37.5169 46.5143 36.1668 46.5143 34.5168V33.0167ZM43.5142 22.5312C43.5142 17.5659 39.4789 13.5307 34.5137 13.5307C29.5484 13.5307 25.5132 17.5659 25.5132 22.5312V27.0164H43.5142V22.5312ZM30.7485 16.7259C29.0984 17.7309 28.3784 19.201 28.5284 21.1361C28.5884 21.9611 29.3084 22.5762 30.1335 22.5162C30.9585 22.4561 31.5735 21.7361 31.5135 20.9111C31.4535 20.206 31.6936 19.666 32.2936 19.291C32.9986 18.856 33.2236 17.9409 32.7886 17.2359C32.3536 16.5308 31.4385 16.3058 30.7335 16.7409L30.7485 16.7259ZM45.4493 12.4806L43.9492 13.9807C43.3641 14.5657 43.3641 15.5108 43.9492 16.0958C44.5342 16.6809 45.4793 16.6809 46.0643 16.0958L47.5644 14.5957C48.1494 14.0107 48.1494 13.0657 47.5644 12.4806C46.9793 11.8956 46.0343 11.8956 45.4493 12.4806ZM21.448 14.5957L22.9481 16.0958C23.5331 16.6809 24.4782 16.6809 25.0632 16.0958C25.6482 15.5108 25.6482 14.5657 25.0632 13.9807L23.5631 12.4806C22.9781 11.8956 22.0331 11.8956 21.448 12.4806C20.863 13.0657 20.863 14.0107 21.448 14.5957ZM33.0136 9.03046V10.5155C33.0136 11.3406 33.6887 12.0156 34.5137 12.0156C35.3387 12.0156 36.0138 11.3406 36.0138 10.5155V9.03046C36.0138 8.20542 35.3387 7.53038 34.5137 7.53038C33.6887 7.53038 33.0136 8.20542 33.0136 9.03046Z" fill="white"/>
</svg>
