<svg width="569" height="570" viewBox="0 0 569 570" fill="none" xmlns="http://www.w3.org/2000/svg">
<path fill-rule="evenodd" clip-rule="evenodd" d="M83.0907 354.66L122.658 423.469C126.763 430.619 135.823 433.025 142.972 428.92L229.892 378.871V479.252C229.892 487.463 236.545 494.118 244.756 494.118H324.173C332.384 494.118 339.037 487.463 339.037 479.252V378.871L425.957 428.92C433.106 433.025 442.166 430.548 446.272 423.469L485.839 354.59C489.944 347.44 487.467 338.379 480.388 334.273L393.822 284.436L480.388 234.529C487.537 230.423 489.944 221.291 485.839 214.212L446.272 145.404C442.166 138.254 433.106 135.847 425.957 139.953L339.037 190.002V89.6916C339.037 81.4799 332.384 74.8256 324.173 74.8256H244.756C236.545 74.8256 229.892 81.4799 229.892 89.6916V190.072L142.972 140.024C135.823 135.918 126.763 138.395 122.658 145.474L83.0907 214.283C78.9854 221.433 81.4627 230.494 88.5409 234.6L175.107 284.436L88.5409 334.273C81.4627 338.308 78.9854 347.44 83.0907 354.59M59.9451 0H509.126C542.039 0 569.007 26.9712 569.007 59.8888V509.125C569.007 542.043 542.039 569.014 509.126 569.014H59.9451C27.0316 569.014 -0.00701904 542.043 -0.00701904 509.125V59.8888C-0.00701904 26.9712 26.9608 0 59.9451 0Z" fill="#04263C"/>
</svg>
